<?xml version="1.0" encoding="UTF-8"?><svg id="Layer_1" xmlns="http://www.w3.org/2000/svg" viewBox="0 0 2042.25 262.02"><defs><style>.cls-1{fill:#fff;}</style></defs><path class="cls-1" d="M110.78,177.92V71.97c0-6.08-4.92-11-11-11h-14.15V201.06h102.61v-12.14c0-6.08-4.92-11-11-11H110.78Z"/><path class="cls-1" d="M445.87,128.23c7.96-6.08,12.94-16.37,12.94-27.19,0-23.23-18.29-40.08-43.49-40.08h-49.73c-6.08,0-11,4.92-11,11V201.06h64.74c25.42,0,44.59-17.79,44.59-41.38,0-13.31-6.98-25.29-18.05-31.44Zm-66.13,12.39h39.59c12.36,0,19.75,9.48,19.75,18.64s-6.78,18.95-19.75,18.95h-39.59v-37.59Zm35.58-21.74h-35.58v-35.18h35.58c11.98,0,18.24,8.98,18.24,17.84s-6.27,17.34-18.24,17.34Z"/><path class="cls-1" d="M587.89,71.97v12.74h44.9v116.35h24.94V84.71h33.8c6.08,0,11-4.92,11-11v-12.74h-103.64c-6.08,0-11,4.92-11,11Z"/><path class="cls-1" d="M761.14,60.97h-10.81c-4.45,0-8.47,2.68-10.17,6.8l-55.06,133.29h19.24c4.56,0,8.65-2.82,10.28-7.08l8.12-21.28h65.99l8.12,21.28c1.63,4.26,5.72,7.08,10.28,7.08h19.24l-55.06-133.29c-1.7-4.12-5.71-6.8-10.17-6.8Zm19.64,90.19h-50.1l25.05-59.49,25.05,59.49Z"/><path class="cls-1" d="M934.82,71.97v46.12h-69.76V60.97h-14.04c-6.08,0-11,4.92-11,11V201.06h14.04c6.08,0,11-4.92,11-11v-48.93h69.76v59.93h14.04c6.08,0,11-4.92,11-11V60.97h-14.04c-6.08,0-11,4.92-11,11Z"/><path class="cls-1" d="M1138.22,128.23c7.96-6.08,12.94-16.37,12.94-27.19,0-23.22-18.29-40.08-43.49-40.08h-49.73c-6.08,0-11,4.92-11,11V201.06h64.73c25.42,0,44.59-17.79,44.59-41.38,0-13.31-6.98-25.29-18.05-31.44Zm-66.13-9.34v-35.18h35.58c11.98,0,18.24,8.98,18.24,17.84s-6.27,17.34-18.24,17.34h-35.58Zm59.34,40.38c0,9.42-6.78,18.95-19.75,18.95h-39.59v-37.59h39.59c12.36,0,19.75,9.48,19.75,18.64Z"/><path class="cls-1" d="M1306.26,71.97v12.74h44.9v116.35h24.94V84.71h33.8c6.08,0,11-4.92,11-11v-12.74h-103.64c-6.08,0-11,4.92-11,11Z"/><path class="cls-1" d="M319.33,84.86l-.13-.15c-4.32-4.9-12.41-1.68-12.22,4.85,.06,2.18,.01,4.37-.15,6.54-.5,6.94-2.12,13.68-4.83,20.09-3.21,7.59-7.81,14.4-13.66,20.26-.58,.58-1.17,1.15-1.77,1.71-4.14-10.98-6.24-22.55-6.24-34.45,0-6.69,1.03-12.8,3.15-18.7,1.52-4.22,3.53-8.15,5.96-12.06,2.2-3.52,.42-8.16-3.57-9.3-1.53-.43-3.08-.82-4.65-1.15-4.69-.99-9.56-1.52-14.55-1.52-38.68,0-70.04,31.36-70.04,70.04,0,1.31,.04,2.61,.11,3.91,.38,6.94,1.77,13.62,4.03,19.88,9.74,26.97,35.56,46.25,65.89,46.25,15.07,0,29.02-4.76,40.45-12.85,3.49-2.48,6.75-5.26,9.73-8.32,12.29-12.62,19.86-29.86,19.86-48.86,0-17.68-6.55-33.83-17.36-46.16Zm-31.51,96.27c-6.69,2.83-13.81,4.27-21.16,4.27s-14.47-1.44-21.16-4.27c-6.47-2.74-12.29-6.66-17.29-11.66-.93-.93-1.82-1.89-2.67-2.87-3.74-4.31-6.76-9.15-8.99-14.42-.35-.82-.67-1.65-.98-2.48-2.18-5.96-3.29-12.24-3.29-18.68,0-7.35,1.44-14.47,4.27-21.16,2.74-6.47,6.66-12.29,11.66-17.29,5-5,10.82-8.92,17.29-11.66,6.69-2.83,13.81-4.27,21.16-4.27,2.05,0,4.08,.11,6.08,.33-3.23,7.93-5.01,16.45-5.01,26.14,0,15.31,3.06,29.91,8.59,43.22,1.66,4,3.54,7.88,5.64,11.62,3.84,6.87,8.37,13.3,13.51,19.19-2.43,1.52-4.98,2.85-7.65,3.98Zm28.95-28.95c-2.66,6.3-6.46,11.98-11.27,16.89-2.83-3.22-5.46-6.61-7.86-10.15-1.83-2.71-3.52-5.5-5.08-8.38,11.85-9.85,20.74-23.14,25.13-38.33,2.22,6,3.34,12.32,3.34,18.82,0,7.35-1.44,14.47-4.27,21.16Z"/><path class="cls-1" d="M1165.69,131.01c0,19.01,7.57,36.24,19.86,48.86,2.98,3.06,6.24,5.85,9.73,8.32,11.42,8.1,25.38,12.85,40.45,12.85,30.33,0,56.16-19.28,65.89-46.25,2.26-6.26,3.65-12.93,4.03-19.88,.07-1.29,.11-2.6,.11-3.91,0-38.68-31.36-70.04-70.04-70.04-4.99,0-9.86,.52-14.55,1.52-1.57,.33-3.12,.72-4.65,1.15-4,1.14-5.77,5.77-3.57,9.3,2.44,3.9,4.44,7.84,5.96,12.06,2.12,5.9,3.15,12.02,3.15,18.7,0,11.9-2.1,23.46-6.24,34.45-.6-.56-1.19-1.13-1.77-1.71-5.86-5.86-10.45-12.67-13.66-20.26-2.71-6.41-4.33-13.14-4.83-20.09-.16-2.18-.21-4.36-.15-6.54,.18-6.53-7.9-9.75-12.22-4.85l-.13,.15c-10.81,12.33-17.36,28.48-17.36,46.16Zm41.23,46.13c5.14-5.89,9.67-12.32,13.51-19.19,2.09-3.75,3.97-7.63,5.64-11.62,5.53-13.31,8.59-27.91,8.59-43.22,0-9.69-1.78-18.21-5.01-26.14,2.01-.22,4.04-.33,6.08-.33,7.35,0,14.47,1.44,21.16,4.27,6.47,2.74,12.29,6.66,17.29,11.66,5,5,8.92,10.82,11.66,17.29,2.83,6.69,4.27,13.81,4.27,21.16,0,6.45-1.11,12.72-3.29,18.68-.3,.83-.63,1.66-.98,2.48-2.23,5.27-5.25,10.11-8.99,14.42-.85,.98-1.74,1.94-2.67,2.87-5,5-10.82,8.92-17.29,11.66-6.69,2.83-13.81,4.27-21.16,4.27-7.35,0-14.47-1.44-21.16-4.27-2.66-1.13-5.22-2.46-7.65-3.98Zm-25.57-46.13c0-6.5,1.12-12.82,3.34-18.82,4.39,15.2,13.28,28.49,25.13,38.33-1.55,2.87-3.25,5.67-5.08,8.38-2.39,3.54-5.02,6.94-7.86,10.15-4.81-4.91-8.6-10.59-11.27-16.89-2.83-6.69-4.27-13.81-4.27-21.16Z"/><path class="cls-1" d="M535.45,119.05l-2.87-.97c-17.83-6.01-25.72-9.07-25.72-18.4,0-10.56,11.27-16.09,22.41-16.09,12.45,0,20.65,6.67,25.34,12.26,3.69,4.4,10.01,5.23,14.72,1.94l9.89-6.92-.82-1.56c-4.46-8.51-18.17-28.3-49.13-28.3-11.75,0-23.35,3.54-31.81,9.72-9.79,7.15-15.02,17.18-15.12,29.02-.21,24.8,20.72,33.55,46.02,41.69,19.75,6.32,28.56,10.74,28.56,20.27s-10.33,16.86-25.13,16.86c-12.68,0-23.15-4.87-30.26-14.08-3.6-4.66-10.19-5.69-15-2.35l-8.88,6.17,.69,1.52c8.71,19.2,29.34,31.12,53.84,31.12,12.27,0,24.4-3.52,33.26-9.67,10.46-7.25,15.99-17.54,15.99-29.77,0-26.84-21.32-34.09-46-42.47Z"/><path class="cls-1" d="M1482.72,119.07l-2.87-.97c-17.83-6.01-25.72-9.07-25.72-18.4,0-10.56,11.27-16.09,22.41-16.09,12.45,0,20.65,6.67,25.34,12.26,3.69,4.4,10.01,5.23,14.72,1.94l9.89-6.92-.82-1.56c-4.46-8.51-18.17-28.3-49.13-28.3-11.75,0-23.35,3.54-31.81,9.72-9.79,7.15-15.02,17.18-15.12,29.02-.21,24.8,20.72,33.55,46.02,41.69,19.75,6.32,28.56,10.74,28.56,20.27s-10.33,16.86-25.13,16.86c-12.68,0-23.15-4.87-30.26-14.08-3.6-4.66-10.19-5.69-15-2.35l-8.88,6.17,.69,1.52c8.71,19.2,29.34,31.12,53.84,31.12,12.27,0,24.4-3.52,33.26-9.67,10.46-7.25,15.99-17.54,15.99-29.77,0-26.84-21.32-34.09-46-42.47Z"/><path class="cls-1" d="M1573.72,49.36h9.22s.04,.02,.04,.04V203.67c0,4.97-4.03,9-9,9h-9.22s-.04-.02-.04-.04V58.36c0-4.97,4.03-9,9-9Z"/><path class="cls-1" d="M1702.61,177.12h-53.03c3.73-5.68,17.28-15.91,24.29-21.19,2.16-1.64,4.39-3.27,6.55-4.85,15.59-11.39,31.7-23.17,31.7-46.86,0-25.42-19.46-43.18-47.31-43.18-20.55,0-39.55,13.38-46.21,32.54l-.62,1.79,10.79,5.18c5.21,2.5,11.52,.86,14.7-3.8,5.13-7.54,12.91-11.87,21.35-11.87,12.8,0,21.41,7.93,21.41,19.73s-9.34,19.72-25.85,32.38c-1.38,1.06-2.81,2.14-4.25,3.24-15.89,12.04-35.66,27.02-35.66,49.64v11.08h93.84v-12.16c0-6.44-5.24-11.69-11.69-11.69Z"/><path class="cls-1" d="M1823.66,143.17h-8.11V61.04h-21.96c-3.78,0-7.37,1.83-9.59,4.89l-55.52,76.58c-1.48,2.04-2.26,4.44-2.26,6.95v16.47h64.36v35.03h24.96v-35.13h19.96v-10.82c0-6.53-5.31-11.84-11.84-11.84Zm-66.77,0l33.69-47.38v47.38h-33.69Z"/><path class="cls-1" d="M1941.14,119.42c-8.5-6.78-19.99-10.52-32.34-10.52-4.93,0-19.98,.88-30.02,10.84,3.07-23.94,15.59-36.07,37.3-36.07,5.38,0,10.69,.86,15.77,2.54,6,1.99,12.5-1.19,14.5-7.07l3.23-9.47-1.46-.87c-8.69-5.15-19.6-7.77-32.43-7.77-20.65,0-36.54,7.13-47.24,21.19-9.8,12.87-14.76,30.88-14.76,53.53s6.25,40.77,18.06,52.06c9.14,8.73,21.25,13.15,36.05,13.15,1.16,0,2.34-.03,3.54-.08,25.37-1.16,45.25-21.68,45.27-46.72,.01-14.64-5.34-26.65-15.48-34.73Zm-35.06,11.73c15.95,0,25.48,8.83,25.48,23.63s-10.08,24.21-25.09,24.21-24.99-10.08-24.99-24.51,9.89-23.34,24.6-23.34Z"/></svg>