<?xml version="1.0" encoding="UTF-8" standalone="no"?> <svg xmlns="http://www.w3.org/2000/svg" xmlns:xlink="http://www.w3.org/1999/xlink" xmlns:serif="http://www.serif.com/" width="100%" height="100%" viewBox="0 0 40339 10842" version="1.1" xml:space="preserve" style="fill-rule:evenodd;clip-rule:evenodd;stroke-miterlimit:10;"> <g id="Artboard1" transform="matrix(1,0,0,1,20.9355,20.9372)"> <rect x="-20.935" y="-20.937" width="40338.3" height="10841.9" style="fill:none;"></rect> <clipPath id="_clip1"> <rect x="-20.935" y="-20.937" width="40338.3" height="10841.9"></rect> </clipPath> <g clip-path="url(#_clip1)"> <g id="Layer-1" serif:id="Layer 1" transform="matrix(4.16667,0,0,4.16667,0.0645313,0.0627591)"> <g transform="matrix(-1,0,0,1,13202,-599.68)"> <rect x="3525.81" y="599.68" width="6768" height="2592" style="fill:rgb(168,53,58);"></rect> </g> <g transform="matrix(1.06334,0,0,1.06334,-827.285,-709.478)"> <g transform="matrix(1,0,0,1,1597.91,2980.01)"> <path d="M0,44.95C12.401,44.95 22.474,34.883 22.474,22.468C22.474,10.051 12.401,0 0,0C-12.425,0 -22.482,10.051 -22.482,22.468C-22.482,34.883 -12.425,44.95 0,44.95" style="fill:rgb(168,53,58);fill-rule:nonzero;"></path> </g> <g transform="matrix(-1,0,0,1,3967.1,-40.8419)"> <rect x="787.182" y="710.023" width="2400.18" height="2411.48" style="fill:white;stroke:white;stroke-width:0.94px;"></rect> </g> <g transform="matrix(1,0,0,1,1480.43,1491.2)"> <path d="M0,789.646C239.305,789.646 458.234,731.484 656.77,615.054L-15.226,-238.109L-15.991,-238.109L655.988,615.054C457.577,731.425 238.788,789.566 -0.363,789.646L0,789.646ZM889.885,443.304C1152.75,187.34 1284.2,-128.206 1284.2,-503.363C1284.2,-615.315 1271.54,-722.044 1247.2,-823.983L1246.38,-823.983C1270.71,-722.044 1283.41,-615.315 1283.41,-503.363C1283.41,-128.4 1152.12,186.979 889.572,442.883L889.885,443.304ZM1727.19,1613.63L1727.19,-823.983L1566.81,-823.983C1586.25,-720.663 1596.01,-612.905 1596.01,-500.698C1596.01,-268.181 1553.96,-55.543 1469.85,137.292C1385.75,330.136 1254.61,510.794 1076.52,679.271L1524.21,1245.07L1152.9,1245.07L845.637,854.958C599.14,1007.01 321.521,1083.01 12.766,1083.01C-249.782,1083.01 -487.992,1029.51 -702.421,923.731L-702.421,1613.63L1727.19,1613.63Z" style="fill:rgb(137,139,142);fill-rule:nonzero;stroke:white;stroke-width:0.94px;"></path> </g> <g transform="matrix(1,0,0,1,1465.2,1694.82)"> <path d="M0,-436.517L8.121,-436.517L9.747,-424.16L0,-436.517ZM1261.37,-1026.3L-687.195,-1026.3L-687.195,380.346C-481.976,519.731 -247.94,589.785 15.226,589.785C254.532,589.785 473.46,531.696 671.997,415.432L273.134,-90.241L640.364,-90.241L905.112,243.927C1167.97,-11.673 1299.42,-326.77 1299.42,-701.393C1299.42,-814.907 1286.45,-923.109 1261.37,-1026.3" style="fill:rgb(168,53,58);fill-rule:nonzero;"></path> </g> </g> <g transform="matrix(1,0,0,1,3982.99,466.292)"> <path d="M0,416.223C59.659,342.691 87.406,266.385 87.406,173.427C87.406,73.536 51.333,-18.033 -18.037,-88.788C-87.406,-159.546 -178.973,-198.393 -274.703,-198.393C-370.433,-198.393 -462.002,-159.546 -531.371,-88.788C-600.74,-18.033 -636.812,73.536 -636.812,173.427C-636.812,378.761 -481.426,542.473 -270.542,542.473C-213.658,542.473 -163.712,529.988 -113.767,505.014L-291.353,313.554L-95.73,313.554L0,416.223ZM316.325,761.681L123.478,761.681L-5.55,621.557C-95.73,670.115 -185.91,692.312 -283.027,692.312C-416.217,692.312 -552.182,638.205 -650.686,541.088C-751.966,442.582 -804.687,313.554 -804.687,173.427C-804.687,33.3 -751.966,-95.725 -650.686,-194.23C-550.795,-292.736 -417.604,-345.458 -274.703,-345.458C-131.801,-345.458 0,-292.736 99.893,-194.23C201.171,-95.725 255.28,33.3 255.28,173.427C255.28,310.78 202.56,437.034 105.441,534.151L316.325,761.681Z" style="fill:white;fill-rule:nonzero;"></path> </g> <g transform="matrix(1,0,0,1,4678.06,1161.38)"> <path d="M0,-1018.34L0,-416.216C0,-237.241 83.243,-147.061 246.955,-147.061C410.667,-147.061 493.911,-237.241 493.911,-416.216L493.911,-1018.34L654.849,-1018.34L654.849,-400.954C654.849,-133.187 520.271,0 246.955,0C-26.361,0 -159.551,-133.187 -159.551,-400.954L-159.551,-1018.34L0,-1018.34Z" style="fill:white;fill-rule:nonzero;"></path> </g> <g transform="matrix(1,0,0,1,6114,494.044)"> <path d="M0,251.118L-101.28,24.973C-112.38,-1.389 -124.867,-37.459 -138.74,-87.406C-151.227,-37.459 -163.712,-1.389 -174.812,24.973L-276.092,251.118L0,251.118ZM56.882,385.694L-335.75,385.694L-450.904,640.975L-620.165,640.975L-140.127,-389.857L339.91,640.975L169.26,640.975L56.882,385.694Z" style="fill:white;fill-rule:nonzero;"></path> </g> <g transform="matrix(1,0,0,1,6646.73,1135.02)"> <path d="M0,-991.985L160.937,-991.985L160.937,-144.29L521.661,-144.29L521.661,0L0,0L0,-991.985Z" style="fill:white;fill-rule:nonzero;"></path> </g> <g transform="matrix(1,0,0,1,-617.648,-1913.63)"> <rect x="8019.1" y="2056.66" width="160.938" height="991.985" style="fill:white;"></rect> </g> <g transform="matrix(1,0,0,1,8214.45,143.034)"> <path d="M0,991.985L-160.938,991.985L-160.938,137.35L-424.544,137.35L-424.544,0L262.216,0L262.216,137.35L0,137.35L0,991.985Z" style="fill:white;fill-rule:nonzero;"></path> </g> <g transform="matrix(1,0,0,1,8913.67,596.711)"> <path d="M0,84.629L-334.361,-453.678L-165.1,-453.678L43.009,-116.542C47.172,-109.605 62.433,-83.243 84.63,-37.462C97.117,-69.369 110.991,-97.12 126.252,-120.705L339.911,-453.678L500.848,-453.678L159.55,84.629L159.55,538.307L0,538.307L0,84.629Z" style="fill:white;fill-rule:nonzero;"></path> </g> <g transform="matrix(1,0,0,1,4099.99,1963.83)"> <path d="M0,-27.745C1.306,12.488 2.61,43.013 2.61,65.209C2.61,346.849 -156.496,506.399 -427.758,506.399C-580.342,506.399 -699.02,459.229 -789.005,362.112C-877.686,266.38 -925.94,133.193 -925.94,-13.871C-925.94,-163.709 -877.686,-291.348 -783.789,-388.469C-692.498,-482.808 -567.301,-534.144 -427.758,-534.144C-280.39,-534.144 -165.626,-477.26 -75.639,-360.721L-186.491,-271.926C-249.091,-349.621 -327.338,-387.08 -425.15,-387.08C-624.683,-387.08 -768.138,-238.63 -768.138,-15.26C-768.138,210.885 -625.987,362.112 -423.846,362.112C-249.091,362.112 -144.759,269.158 -144.759,122.094L-144.759,108.22L-369.072,108.22L-369.072,-27.745L0,-27.745Z" style="fill:white;fill-rule:nonzero;"></path> </g> <g transform="matrix(1,0,0,1,4440.37,2020.72)"> <path d="M0,-145.679C133.022,-145.679 199.533,-162.327 199.533,-281.644C199.533,-403.734 135.631,-430.093 0,-430.093L-27.387,-430.093L-27.387,-145.679L0,-145.679ZM-36.516,423.153L-178.667,423.153L-178.667,-568.832L32.603,-568.832C133.022,-568.832 207.357,-560.506 264.741,-513.336C320.819,-466.167 354.727,-388.472 354.727,-295.517C354.727,-135.965 281.694,-45.784 140.847,-27.751L461.667,423.153L290.823,423.153L-19.563,-20.814L-36.516,-20.814L-36.516,423.153Z" style="fill:white;fill-rule:nonzero;"></path> </g> <g transform="matrix(1,0,0,1,5506.73,1802.9)"> <path d="M0,251.118L-93.652,24.973C-103.917,-1.389 -115.462,-37.459 -128.292,-87.406C-139.838,-37.459 -151.385,-1.389 -161.648,24.973L-255.3,251.118L0,251.118ZM52.6,385.694L-310.466,385.694L-416.948,640.975L-573.465,640.975L-129.575,-389.857L314.316,640.975L156.517,640.975L52.6,385.694Z" style="fill:white;fill-rule:nonzero;"></path> </g> <g transform="matrix(1,0,0,1,6075.23,2029.04)"> <path d="M0,-162.323C151.955,-162.323 228.643,-178.971 228.643,-294.125C228.643,-413.441 153.376,-438.415 0,-438.415L-42.604,-438.415L-42.604,-162.323L0,-162.323ZM-52.544,414.831L-207.339,414.831L-207.339,-577.154L42.605,-577.154C146.274,-577.154 228.643,-574.38 296.809,-525.821C359.295,-481.425 399.061,-399.568 399.061,-303.839C399.061,-208.107 359.295,-124.864 296.809,-80.469C228.643,-33.295 146.274,-30.521 42.605,-30.521L-52.544,-30.521L-52.544,414.831Z" style="fill:white;fill-rule:nonzero;"></path> </g> <g transform="matrix(1,0,0,1,6549.15,2443.88)"> <path d="M0,-991.985L151.281,-991.985L151.281,-625.713L610.338,-625.713L610.338,-991.985L761.62,-991.985L761.62,0L610.338,0L610.338,-481.426L151.281,-481.426L151.281,0L0,0L0,-991.985Z" style="fill:white;fill-rule:nonzero;"></path> </g> <g transform="matrix(1,0,0,1,-617.648,704.085)"> <rect x="8144.88" y="747.805" width="151.279" height="991.985" style="fill:white;"></rect> </g> <g transform="matrix(1,0,0,1,8357.96,2321.78)"> <path d="M0,-745.029C-204.749,-745.029 -344.292,-591.028 -344.292,-370.435C-344.292,-152.612 -202.142,-1.388 -15.648,-1.388C95.203,-1.388 194.317,-43.01 285.608,-126.253L285.608,55.496C203.447,117.928 108.244,148.45 -3.912,148.45C-147.367,148.45 -269.956,97.117 -361.247,1.389C-452.536,-94.343 -502.094,-227.533 -502.094,-371.82C-502.094,-517.496 -452.536,-647.912 -359.943,-745.029C-267.348,-842.146 -146.063,-893.479 -6.521,-893.479C105.636,-893.479 203.447,-858.794 294.737,-790.813L286.912,-628.487C200.839,-706.181 105.636,-745.029 0,-745.029" style="fill:white;fill-rule:nonzero;"></path> </g> <g transform="matrix(1,0,0,1,8900.47,1714.1)"> <path d="M0,471.715C22.171,560.51 84.769,607.68 179.973,607.68C271.262,607.68 327.34,549.41 327.34,460.615C327.34,363.498 258.221,339.913 161.714,289.966C-3.912,203.949 -95.202,137.354 -95.202,-12.485C-95.202,-172.034 15.65,-284.414 185.188,-284.414C323.428,-284.414 418.629,-224.756 453.843,-120.702L335.164,-55.492C298.648,-116.539 255.611,-145.675 196.925,-145.675C114.764,-145.675 63.904,-95.728 63.904,-20.807C63.904,74.921 136.935,104.058 241.267,155.39C405.589,235.859 482.533,306.617 482.533,449.515C482.533,634.039 366.463,756.129 173.452,756.129C14.347,756.129 -89.985,675.664 -121.284,531.373L0,471.715Z" style="fill:white;fill-rule:nonzero;"></path> </g> </g> </g> </g> </svg> 