<svg width="165" height="18" viewBox="0 0 165 18" fill="none" xmlns="http://www.w3.org/2000/svg">
<g clip-path="url(#clip0_39_41)">
<path d="M34.2513 11.0806L32.4 12.0596C33.0275 13.5739 34.7254 14.6443 36.9129 14.6443C38.9627 14.6443 40.5843 13.6195 41.181 12.3804V10.2237C40.7833 9.39762 40.0029 8.70948 38.8402 8.31141C38.2261 8.0982 37.6548 8.02301 37.1236 7.9531C36.7022 7.89764 36.3061 7.84551 35.9339 7.73046C35.3986 7.57755 35.0924 7.30251 34.9241 6.95007V6.27687C35.1842 5.71095 35.9185 5.31369 36.8821 5.31369C37.953 5.31369 38.9017 5.83308 39.3604 6.84288L41.2267 5.86386C40.5996 4.38039 38.9781 3.35565 36.8672 3.35565C34.863 3.35565 33.3026 4.34961 32.7212 5.61951V7.65405C33.0886 8.48016 33.8686 9.1683 35.0313 9.56637C35.612 9.75965 36.1503 9.82559 36.6551 9.88741C37.1074 9.94281 37.5328 9.99491 37.9375 10.1324C38.4732 10.3002 38.7944 10.5603 38.9781 10.9119V11.7072C38.6872 12.274 37.9073 12.6713 36.8975 12.6713C35.7502 12.6713 34.7558 12.1361 34.2513 11.0806Z" fill="#0F0E0D" fill-opacity="0.9"/>
<path d="M47.7595 5.6196H51.3544V3.6H41.9772V5.6196H45.5875V14.4H47.7595V5.6196Z" fill="#0F0E0D" fill-opacity="0.9"/>
<path d="M57.3978 3.6H54.5829L50.4984 14.0019V14.4H52.6094L55.9595 5.57379L57.7305 10.2396H55.0886L54.3397 12.2126H58.4794L59.3097 14.4H61.4668V13.987L57.3978 3.6Z" fill="#0F0E0D" fill-opacity="0.9"/>
<path d="M72.4207 14.4V3.6H70.3097V10.9734L65.2463 3.6H62.7987V14.4H64.925V6.64425L70.2332 14.4H72.4207Z" fill="#0F0E0D" fill-opacity="0.9"/>
<path fill-rule="evenodd" clip-rule="evenodd" d="M84.3689 7.11882V10.882C83.6957 12.8699 81.5544 14.3999 78.8924 14.3999H74.7469V3.6H78.8924C81.5544 3.6 83.6957 5.13 84.3689 7.11882ZM82.1507 7.68483C81.8295 6.59862 80.5139 5.6196 78.8924 5.6196H76.9344V12.3805H78.8924C80.5139 12.3805 81.8295 11.4015 82.1507 10.3161V7.68483Z" fill="#0F0E0D" fill-opacity="0.9"/>
<path d="M89.0971 3.6H91.9121L95.9811 13.987V14.4H93.8239L92.9937 12.2126H88.854L89.6029 10.2396H92.2447L90.4738 5.57379L87.1236 14.4H85.0127V14.0019L89.0971 3.6Z" fill="#0F0E0D" fill-opacity="0.9"/>
<path fill-rule="evenodd" clip-rule="evenodd" d="M106.338 14.0019V14.4H104.136L101.581 10.5147H99.47V14.4H97.3129V3.6H102.3C104.044 3.6 105.558 4.62474 106.002 5.86386V8.25075C105.696 9.06102 104.87 9.84141 103.83 10.2396L106.338 14.0019ZM99.47 8.64801H102.085C102.897 8.64801 103.585 8.25075 103.83 7.69977V6.50628C103.585 5.95611 102.897 5.5431 102.085 5.5431H99.47V8.64801Z" fill="#0F0E0D" fill-opacity="0.9"/>
<path fill-rule="evenodd" clip-rule="evenodd" d="M117.629 10.8821V7.11891C116.955 5.13009 114.814 3.6 112.153 3.6H108.007V14.4H112.153C114.814 14.4 116.955 12.87 117.629 10.8821ZM112.153 5.6196C113.774 5.6196 115.09 6.59862 115.41 7.68483V10.3161C115.09 11.4015 113.774 12.3805 112.153 12.3805H110.195V5.6196H112.153Z" fill="#0F0E0D" fill-opacity="0.9"/>
<path fill-rule="evenodd" clip-rule="evenodd" d="M131.672 10.2238V12.3348C131.244 13.5283 129.791 14.4 128.093 14.4H123.015V3.6H127.833C129.532 3.6 130.984 4.47183 131.397 5.66523V7.60833C131.214 8.09784 130.786 8.52588 130.235 8.84745C130.924 9.16821 131.443 9.65781 131.672 10.2238ZM125.156 5.49738V8.05131H127.849C128.491 8.05131 129.042 7.73055 129.256 7.19532V6.35337C129.042 5.83308 128.491 5.49738 127.849 5.49738H125.156ZM129.485 10.6826C129.302 10.1324 128.735 9.81072 128.078 9.81072H125.156V12.5035H128.078C128.735 12.5035 129.302 12.1669 129.485 11.6466V10.6826Z" fill="#0F0E0D" fill-opacity="0.9"/>
<path fill-rule="evenodd" clip-rule="evenodd" d="M133.25 6.84288V11.1571C133.907 13.1459 136.064 14.6444 138.726 14.6444C141.388 14.6444 143.53 13.1459 144.187 11.1571V6.84288C143.53 4.85406 141.387 3.35565 138.726 3.35565C136.065 3.35565 133.907 4.85406 133.25 6.84288ZM141.985 7.42473V10.5754C141.648 11.6616 140.333 12.6406 138.711 12.6406C137.105 12.6406 135.789 11.6616 135.452 10.5754V7.42473C135.789 6.33852 137.105 5.3595 138.711 5.3595C140.333 5.3595 141.648 6.33852 141.985 7.42473Z" fill="#0F0E0D" fill-opacity="0.9"/>
<path d="M154.194 5.61951H150.598V14.4H148.426V5.61951H144.816V3.6H154.194V5.61951Z" fill="#0F0E0D" fill-opacity="0.9"/>
<path d="M156.611 11.0806L154.761 12.0596C155.387 13.5739 157.085 14.6443 159.273 14.6443C161.323 14.6443 162.944 13.6195 163.541 12.3804V10.2237C163.143 9.39762 162.363 8.70948 161.201 8.31141C160.586 8.09821 160.015 8.02302 159.483 7.9531C159.062 7.89765 158.666 7.84552 158.293 7.73046C157.758 7.57755 157.452 7.30251 157.285 6.95007V6.27687C157.545 5.71095 158.279 5.31369 159.243 5.31369C160.313 5.31369 161.261 5.83308 161.72 6.84288L163.587 5.86386C162.959 4.38039 161.338 3.35565 159.227 3.35565C157.223 3.35565 155.663 4.34961 155.081 5.61951V7.65405C155.449 8.48016 156.229 9.1683 157.392 9.56637C157.973 9.75967 158.511 9.8256 159.016 9.88743C159.468 9.94282 159.893 9.99492 160.298 10.1324C160.833 10.3002 161.154 10.5603 161.338 10.9119V11.7072C161.048 12.274 160.267 12.6713 159.258 12.6713C158.111 12.6713 157.116 12.1361 156.611 11.0806Z" fill="#0F0E0D" fill-opacity="0.9"/>
<g clip-path="url(#clip1_39_41)">
<path d="M20.9239 0L23.2532 4.05H3.74699L6.07628 0H20.9239Z" fill="#0F0E0D" fill-opacity="0.9"/>
<path d="M16.8458 13.95C18.8029 10.7519 21.2248 7.86933 24.0424 5.42223L26.1 9C23.2954 11.5578 20.9445 14.6035 19.1749 18H7.82517C6.05559 14.6035 3.70469 11.5578 0.900024 9L2.95778 5.42223C5.77541 7.86933 8.19723 10.7519 10.1544 13.95H16.8458Z" fill="#0F0E0D" fill-opacity="0.9"/>
</g>
</g>
<defs>
<clipPath id="clip0_39_41">
<rect width="165" height="18" fill="white"/>
</clipPath>
<clipPath id="clip1_39_41">
<rect width="27" height="18" fill="white"/>
</clipPath>
</defs>
</svg>
